<?xml version="1.0" encoding="UTF-8" standalone="no"?>
<!-- Created with Inkscape (http://www.inkscape.org/) -->

<svg
   version="1.1"
   id="svg182"
   width="116.49734"
   height="116.496"
   viewBox="0 0 116.49735 116.496"
   xmlns="http://www.w3.org/2000/svg"
   xmlns:svg="http://www.w3.org/2000/svg">
  <defs
     id="defs186">
    <clipPath
       clipPathUnits="userSpaceOnUse"
       id="clipPath238">
      <path
         d="m 262.058,209.632 c 0,-24.089 19.598,-43.686 43.687,-43.686 v 0 c 24.089,0 43.686,19.597 43.686,43.686 v 0 c 0,24.089 -19.597,43.686 -43.686,43.686 v 0 c -24.089,0 -43.687,-19.597 -43.687,-43.686 m 6.001,0 c 0,20.78 16.906,37.687 37.686,37.687 v 0 c 20.78,0 37.687,-16.907 37.687,-37.687 v 0 c 0,-20.78 -16.907,-37.687 -37.687,-37.687 v 0 c -20.78,0 -37.686,16.907 -37.686,37.687"
         id="path236" />
    </clipPath>
    <linearGradient
       x1="0"
       y1="0"
       x2="1"
       y2="0"
       gradientUnits="userSpaceOnUse"
       gradientTransform="matrix(87.373047,0,0,-87.373047,262.05859,209.63208)"
       spreadMethod="pad"
       id="linearGradient248">
      <stop
         style="stop-opacity:1;stop-color:#ba007c"
         offset="0"
         id="stop244" />
      <stop
         style="stop-opacity:1;stop-color:#17207f"
         offset="1"
         id="stop246" />
    </linearGradient>
    <clipPath
       clipPathUnits="userSpaceOnUse"
       id="clipPath258">
      <path
         d="m 289.425,233.882 c -0.113,-0.001 -0.225,0 -0.338,0 v 0 c -0.553,0.001 -1.109,0.003 -1.659,-0.045 v 0 c -2.718,-0.237 -4.86,-2.021 -5.666,-4.637 v 0 c -0.321,-1.043 -0.307,-2.101 -0.307,-3.166 v 0 c -10e-4,-10.927 -10e-4,-21.853 0,-32.778 v 0 c 0,-0.534 -0.014,-1.067 0.023,-1.599 v 0 c 0.245,-3.55 2.781,-6.058 6.32,-6.253 v 0 c 0.533,-0.028 1.066,-0.019 1.6,-0.019 v 0 c 4.529,-0.002 9.06,-0.001 13.591,-0.001 v 0 c 0.398,0 0.799,-0.01 1.198,0.005 v 0 c 1.044,0.042 1.175,0.165 1.224,1.129 v 0 c 0.013,0.265 0.006,0.532 0.006,0.798 v 0 c 0.005,4.464 0.014,8.928 0.011,13.391 v 0 c -10e-4,1.91 -0.014,1.911 -1.834,1.932 v 0 c -0.244,0.002 -0.487,0 -0.731,-0.002 v 0 c -0.423,-0.004 -0.846,-0.007 -1.267,0.016 v 0 c -1.224,0.067 -1.675,0.487 -1.72,1.726 v 0 c -0.054,1.464 -0.02,2.931 -0.017,4.397 v 0 c 0.001,0.197 0.029,0.401 0.083,0.59 v 0 c 0.159,0.554 0.493,0.957 1.092,1.025 v 0 c 0.594,0.069 1.193,0.095 1.791,0.118 v 0 c 0.599,0.024 1.2,0.004 1.798,0.038 v 0 c 0.451,0.026 0.749,0.283 0.76,0.751 v 0 c 0.025,1.133 0.042,2.266 0.03,3.397 v 0 c -0.013,1.271 0.064,2.533 0.323,3.776 v 0 c 0.753,3.617 2.907,5.93 6.507,6.785 v 0 c 2.358,0.56 4.774,0.288 7.167,0.271 v 0 c 0.129,-10e-4 0.265,-0.047 0.385,-0.1 v 0 c 0.384,-0.17 0.708,-0.441 0.753,-0.864 v 0 c 0.17,-1.592 0.162,-3.191 0.01,-4.782 v 0 c -0.055,-0.571 -0.472,-0.969 -1.054,-1.058 v 0 c -0.522,-0.079 -1.06,-0.056 -1.591,-0.085 v 0 c -0.731,-0.042 -1.47,-0.024 -2.188,-0.147 v 0 c -1.602,-0.273 -2.152,-0.864 -2.479,-2.436 v 0 c -0.219,-1.058 -0.135,-2.125 -0.141,-3.188 v 0 c -0.018,-2.366 -0.135,-2.362 2.102,-2.358 v 0 c 0.102,0 0.207,0.001 0.319,0.001 v 0 c 1.332,0 2.665,0.019 3.995,-0.053 v 0 c 0.896,-0.05 1.396,-0.589 1.315,-1.43 v 0 c -0.163,-1.722 -0.385,-3.441 -0.645,-5.151 v 0 c -0.117,-0.77 -0.574,-1.119 -1.382,-1.202 v 0 c -0.353,-0.038 -0.71,-0.036 -1.067,-0.035 v 0 c -0.11,10e-4 -0.221,10e-4 -0.331,10e-4 v 0 c -0.355,-10e-4 -0.712,-10e-4 -1.066,0 v 0 c -0.711,0.003 -1.422,0.005 -2.131,-0.016 v 0 c -0.822,-0.023 -1.013,-0.246 -1.072,-1.106 v 0 c -0.018,-0.265 -0.011,-0.533 -0.012,-0.799 v 0 c -0.009,-4.53 -0.017,-9.059 -0.025,-13.591 v 0 c 0,-0.332 0.005,-0.666 0.028,-0.997 v 0 c 0.035,-0.48 0.337,-0.693 0.787,-0.722 v 0 c 0.332,-0.021 0.666,-0.024 0.999,-0.024 v 0 c 2.664,-0.001 5.329,-0.004 7.994,0.006 v 0 c 0.533,0.002 1.069,0.012 1.595,0.088 v 0 c 2.646,0.389 4.783,2.411 5.299,5.038 v 0 c 0.14,0.715 0.219,1.454 0.22,2.182 v 0 c 0.014,11.259 0.014,22.518 0.001,33.777 v 0 c 0,0.728 -0.072,1.466 -0.206,2.182 v 0 c -0.521,2.779 -2.808,4.874 -5.623,5.166 v 0 c -0.567,0.059 -1.14,0.058 -1.712,0.057 v 0 c -0.095,0 -0.191,-0.001 -0.285,0 v 0 c -5.462,0.004 -10.925,0.002 -16.388,0.002 v 0 c -3.122,0 -6.244,10e-4 -9.365,10e-4 v 0 c -2.341,0 -4.683,-10e-4 -7.024,-0.002"
         id="path256" />
    </clipPath>
    <linearGradient
       x1="0"
       y1="0"
       x2="1"
       y2="0"
       gradientUnits="userSpaceOnUse"
       gradientTransform="matrix(48.585712,0,0,-48.585712,281.45227,209.63213)"
       spreadMethod="pad"
       id="linearGradient268">
      <stop
         style="stop-opacity:1;stop-color:#ba007c"
         offset="0"
         id="stop264" />
      <stop
         style="stop-opacity:1;stop-color:#17207f"
         offset="1"
         id="stop266" />
    </linearGradient>
  </defs>
  <g
     id="g190"
     transform="matrix(1.3333333,0,0,-1.3333333,-349.41064,337.75734)">
    <g
       id="g232">
      <g
         id="g234"
         clip-path="url(#clipPath238)">
        <g
           id="g240">
          <g
             id="g242">
            <path
               d="m 262.058,209.632 c 0,-24.089 19.598,-43.686 43.687,-43.686 v 0 c 24.089,0 43.686,19.597 43.686,43.686 v 0 c 0,24.089 -19.597,43.686 -43.686,43.686 v 0 c -24.089,0 -43.687,-19.597 -43.687,-43.686 m 6.001,0 c 0,20.78 16.906,37.687 37.686,37.687 v 0 c 20.78,0 37.687,-16.907 37.687,-37.687 v 0 c 0,-20.78 -16.907,-37.687 -37.687,-37.687 v 0 c -20.78,0 -37.686,16.907 -37.686,37.687"
               style="fill:url(#linearGradient248);stroke:none"
               id="path250" />
          </g>
        </g>
      </g>
    </g>
    <g
       id="g252">
      <g
         id="g254"
         clip-path="url(#clipPath258)">
        <g
           id="g260">
          <g
             id="g262">
            <path
               d="m 289.425,233.882 c -0.113,-0.001 -0.225,0 -0.338,0 v 0 c -0.553,0.001 -1.109,0.003 -1.659,-0.045 v 0 c -2.718,-0.237 -4.86,-2.021 -5.666,-4.637 v 0 c -0.321,-1.043 -0.307,-2.101 -0.307,-3.166 v 0 c -10e-4,-10.927 -10e-4,-21.853 0,-32.778 v 0 c 0,-0.534 -0.014,-1.067 0.023,-1.599 v 0 c 0.245,-3.55 2.781,-6.058 6.32,-6.253 v 0 c 0.533,-0.028 1.066,-0.019 1.6,-0.019 v 0 c 4.529,-0.002 9.06,-0.001 13.591,-0.001 v 0 c 0.398,0 0.799,-0.01 1.198,0.005 v 0 c 1.044,0.042 1.175,0.165 1.224,1.129 v 0 c 0.013,0.265 0.006,0.532 0.006,0.798 v 0 c 0.005,4.464 0.014,8.928 0.011,13.391 v 0 c -10e-4,1.91 -0.014,1.911 -1.834,1.932 v 0 c -0.244,0.002 -0.487,0 -0.731,-0.002 v 0 c -0.423,-0.004 -0.846,-0.007 -1.267,0.016 v 0 c -1.224,0.067 -1.675,0.487 -1.72,1.726 v 0 c -0.054,1.464 -0.02,2.931 -0.017,4.397 v 0 c 0.001,0.197 0.029,0.401 0.083,0.59 v 0 c 0.159,0.554 0.493,0.957 1.092,1.025 v 0 c 0.594,0.069 1.193,0.095 1.791,0.118 v 0 c 0.599,0.024 1.2,0.004 1.798,0.038 v 0 c 0.451,0.026 0.749,0.283 0.76,0.751 v 0 c 0.025,1.133 0.042,2.266 0.03,3.397 v 0 c -0.013,1.271 0.064,2.533 0.323,3.776 v 0 c 0.753,3.617 2.907,5.93 6.507,6.785 v 0 c 2.358,0.56 4.774,0.288 7.167,0.271 v 0 c 0.129,-10e-4 0.265,-0.047 0.385,-0.1 v 0 c 0.384,-0.17 0.708,-0.441 0.753,-0.864 v 0 c 0.17,-1.592 0.162,-3.191 0.01,-4.782 v 0 c -0.055,-0.571 -0.472,-0.969 -1.054,-1.058 v 0 c -0.522,-0.079 -1.06,-0.056 -1.591,-0.085 v 0 c -0.731,-0.042 -1.47,-0.024 -2.188,-0.147 v 0 c -1.602,-0.273 -2.152,-0.864 -2.479,-2.436 v 0 c -0.219,-1.058 -0.135,-2.125 -0.141,-3.188 v 0 c -0.018,-2.366 -0.135,-2.362 2.102,-2.358 v 0 c 0.102,0 0.207,0.001 0.319,0.001 v 0 c 1.332,0 2.665,0.019 3.995,-0.053 v 0 c 0.896,-0.05 1.396,-0.589 1.315,-1.43 v 0 c -0.163,-1.722 -0.385,-3.441 -0.645,-5.151 v 0 c -0.117,-0.77 -0.574,-1.119 -1.382,-1.202 v 0 c -0.353,-0.038 -0.71,-0.036 -1.067,-0.035 v 0 c -0.11,10e-4 -0.221,10e-4 -0.331,10e-4 v 0 c -0.355,-10e-4 -0.712,-10e-4 -1.066,0 v 0 c -0.711,0.003 -1.422,0.005 -2.131,-0.016 v 0 c -0.822,-0.023 -1.013,-0.246 -1.072,-1.106 v 0 c -0.018,-0.265 -0.011,-0.533 -0.012,-0.799 v 0 c -0.009,-4.53 -0.017,-9.059 -0.025,-13.591 v 0 c 0,-0.332 0.005,-0.666 0.028,-0.997 v 0 c 0.035,-0.48 0.337,-0.693 0.787,-0.722 v 0 c 0.332,-0.021 0.666,-0.024 0.999,-0.024 v 0 c 2.664,-0.001 5.329,-0.004 7.994,0.006 v 0 c 0.533,0.002 1.069,0.012 1.595,0.088 v 0 c 2.646,0.389 4.783,2.411 5.299,5.038 v 0 c 0.14,0.715 0.219,1.454 0.22,2.182 v 0 c 0.014,11.259 0.014,22.518 0.001,33.777 v 0 c 0,0.728 -0.072,1.466 -0.206,2.182 v 0 c -0.521,2.779 -2.808,4.874 -5.623,5.166 v 0 c -0.567,0.059 -1.14,0.058 -1.712,0.057 v 0 c -0.095,0 -0.191,-0.001 -0.285,0 v 0 c -5.462,0.004 -10.925,0.002 -16.388,0.002 v 0 c -3.122,0 -6.244,10e-4 -9.365,10e-4 v 0 c -2.341,0 -4.683,-10e-4 -7.024,-0.002"
               style="fill:url(#linearGradient268);stroke:none"
               id="path270" />
          </g>
        </g>
      </g>
    </g>
  </g>
</svg>
