<?xml version="1.0" encoding="UTF-8" standalone="no"?>
<!-- Created with Inkscape (http://www.inkscape.org/) -->

<svg
   version="1.1"
   id="svg182"
   width="116.49866"
   height="116.496"
   viewBox="0 0 116.49866 116.496"
   sodipodi:docname="2294375.ai"
   xmlns:inkscape="http://www.inkscape.org/namespaces/inkscape"
   xmlns:sodipodi="http://sodipodi.sourceforge.net/DTD/sodipodi-0.dtd"
   xmlns="http://www.w3.org/2000/svg"
   xmlns:svg="http://www.w3.org/2000/svg">
  <defs
     id="defs186">
    <clipPath
       clipPathUnits="userSpaceOnUse"
       id="clipPath958">
      <path
         d="m 150.568,209.632 c 0,-24.089 19.598,-43.686 43.687,-43.686 v 0 c 24.089,0 43.687,19.597 43.687,43.686 v 0 c 0,24.089 -19.598,43.686 -43.687,43.686 v 0 c -24.089,0 -43.687,-19.597 -43.687,-43.686 m 6,0 c 0,20.78 16.906,37.687 37.687,37.687 v 0 c 20.78,0 37.687,-16.907 37.687,-37.687 v 0 c 0,-20.78 -16.907,-37.687 -37.687,-37.687 v 0 c -20.781,0 -37.687,16.907 -37.687,37.687"
         id="path956" />
    </clipPath>
    <linearGradient
       x1="0"
       y1="0"
       x2="1"
       y2="0"
       gradientUnits="userSpaceOnUse"
       gradientTransform="matrix(87.374023,0,0,-87.374023,150.56787,209.63208)"
       spreadMethod="pad"
       id="linearGradient968">
      <stop
         style="stop-opacity:1;stop-color:#ba007c"
         offset="0"
         id="stop964" />
      <stop
         style="stop-opacity:1;stop-color:#17207f"
         offset="1"
         id="stop966" />
    </linearGradient>
    <clipPath
       clipPathUnits="userSpaceOnUse"
       id="clipPath978">
      <path
         d="m 203.812,222.041 c 0.093,-1.679 1.387,-3.076 3.015,-3.085 v 0 c 1.641,-0.009 3.032,1.372 3.036,3.015 v 0 c 0.004,1.816 -1.152,2.997 -2.956,3.02 v 0 c -0.077,0.008 -0.154,0.012 -0.23,0.012 v 0 c -1.598,0 -2.933,-1.737 -2.865,-2.962"
         id="path976" />
    </clipPath>
    <linearGradient
       x1="0"
       y1="0"
       x2="1"
       y2="0"
       gradientUnits="userSpaceOnUse"
       gradientTransform="matrix(6.0533743,0,0,-6.0533743,203.80943,221.97974)"
       spreadMethod="pad"
       id="linearGradient988">
      <stop
         style="stop-opacity:1;stop-color:#ba007c"
         offset="0"
         id="stop984" />
      <stop
         style="stop-opacity:1;stop-color:#17207f"
         offset="1"
         id="stop986" />
    </linearGradient>
    <clipPath
       clipPathUnits="userSpaceOnUse"
       id="clipPath998">
      <path
         d="m 181.847,209.624 c -0.079,-6.903 5.402,-12.469 12.341,-12.528 v 0 c 6.83,-0.058 12.458,5.437 12.477,12.393 v 0 c 0.019,6.911 -5.474,12.33 -12.242,12.421 v 0 c -0.06,0.001 -0.119,0.001 -0.178,0.001 v 0 c -7.006,0.001 -12.395,-5.639 -12.398,-12.287 m 4.673,-0.187 c -0.03,4.351 3.321,7.773 7.656,7.816 v 0 c 4.334,0.043 7.775,-3.335 7.806,-7.663 v 0 c 0.031,-4.335 -3.34,-7.788 -7.654,-7.841 v 0 c -0.032,0 -0.065,0 -0.096,0 v 0 c -4.247,-0.001 -7.682,3.415 -7.712,7.688"
         id="path996" />
    </clipPath>
    <linearGradient
       x1="0"
       y1="0"
       x2="1"
       y2="0"
       gradientUnits="userSpaceOnUse"
       gradientTransform="matrix(24.819094,0,0,-24.819094,181.84625,209.50392)"
       spreadMethod="pad"
       id="linearGradient1008">
      <stop
         style="stop-opacity:1;stop-color:#ba007c"
         offset="0"
         id="stop1004" />
      <stop
         style="stop-opacity:1;stop-color:#17207f"
         offset="1"
         id="stop1006" />
    </linearGradient>
    <clipPath
       clipPathUnits="userSpaceOnUse"
       id="clipPath1018">
      <path
         d="m 179.465,232.968 c -4.946,-1.918 -8.125,-5.388 -9.188,-10.664 v 0 c -0.082,-1.391 -0.229,-2.78 -0.236,-4.17 v 0 c -0.032,-5.795 -0.033,-11.59 -0.014,-17.386 v 0 c 0.004,-1.061 0.056,-2.14 0.246,-3.181 v 0 c 1.031,-5.663 4.29,-9.457 9.703,-11.415 v 0 c 1.658,-0.6 3.382,-0.724 5.116,-0.729 v 0 c 6.128,-0.016 12.256,-0.014 18.385,0.003 v 0 c 0.93,0.002 1.87,0.05 2.788,0.188 v 0 c 3.276,0.493 6.049,1.977 8.307,4.398 v 0 c 2.621,2.812 3.865,6.198 3.899,9.999 v 0 c 0.051,6.06 0.008,12.123 0,18.184 v 0 c 0,0.281 0.008,0.565 -0.075,0.833 v 0 c -0.017,0.31 -0.042,0.601 -0.068,0.894 v 0 c 0.007,0.06 0.02,0.12 0.016,0.179 v 0 c -0.053,0.992 -0.209,1.956 -0.459,2.895 v 0 c -0.28,1.305 -0.636,2.373 -1.014,3.221 v 0 c -0.005,0.018 0,0.042 -0.008,0.057 v 0 c -0.026,0.048 -0.058,0.089 -0.084,0.136 v 0 c -0.757,1.621 -1.558,2.429 -1.928,2.741 v 0 c -0.898,1.002 -1.929,1.876 -3.118,2.575 v 0 c -2.261,1.325 -4.734,2.125 -7.403,2.126 v 0 c -2.523,0 -5.046,-0.001 -7.568,-0.001 v 0 c -4.204,-0.001 -8.408,-0.002 -12.611,0.001 v 0 c -1.621,0.001 -3.191,-0.304 -4.686,-0.884 m 5.849,-43.022 c -1.197,0.002 -2.384,0.04 -3.555,0.385 v 0 c -3.852,1.139 -6.562,4.378 -6.937,8.385 v 0 c -0.062,0.662 -0.072,1.33 -0.073,1.994 v 0 c -0.01,5.921 -0.025,11.842 -0.011,17.761 v 0 c 0.001,0.183 0,0.365 0,0.548 v 0 c -0.003,1.278 0.019,2.56 0.66,3.741 v 0 c 0.385,0.616 0.743,1.252 1.158,1.849 v 0 c 1.976,2.838 4.79,4.097 8.163,4.25 v 0 c 0.996,0.045 1.995,0.011 2.993,0.011 v 0 c 5.19,0 10.379,-0.001 15.567,-0.001 v 0 c 2.686,0.001 5.088,-0.771 7.196,-2.485 v 0 c 0.194,-0.198 0.37,-0.409 0.542,-0.624 v 0 c 0.072,-0.097 0.146,-0.19 0.223,-0.282 v 0 c 1.964,-2.645 2.446,-6.279 2.54,-8.512 v 0 c 0,-0.007 -0.001,-0.014 -0.002,-0.022 v 0 c -0.02,-0.661 -0.006,-1.327 -0.007,-1.989 v 0 c -0.016,-4.856 -0.016,-9.712 -10e-4,-14.568 v 0 c 0.004,-1.824 -0.251,-3.576 -1.118,-5.21 v 0 c -1.622,-3.058 -4.189,-4.726 -7.583,-5.164 v 0 c -0.55,-0.07 -1.11,-0.069 -1.668,-0.068 v 0 c -0.109,0.001 -0.217,0.001 -0.325,0.001 v 0 c -3.123,-0.002 -6.247,-0.003 -9.37,-0.003 v 0 c -2.798,0 -5.594,10e-4 -8.392,0.003"
         id="path1016" />
    </clipPath>
    <linearGradient
       x1="0"
       y1="0"
       x2="1"
       y2="0"
       gradientUnits="userSpaceOnUse"
       gradientTransform="matrix(48.48048,0,0,-48.48048,170.01463,209.63214)"
       spreadMethod="pad"
       id="linearGradient1028">
      <stop
         style="stop-opacity:1;stop-color:#ba007c"
         offset="0"
         id="stop1024" />
      <stop
         style="stop-opacity:1;stop-color:#17207f"
         offset="1"
         id="stop1026" />
    </linearGradient>
  </defs>
  <sodipodi:namedview
     id="namedview184"
     pagecolor="#ffffff"
     bordercolor="#000000"
     borderopacity="0.25"
     inkscape:showpageshadow="2"
     inkscape:pageopacity="0.0"
     inkscape:pagecheckerboard="0"
     inkscape:deskcolor="#d1d1d1"
     showgrid="false" />
  <g
     id="g190"
     inkscape:groupmode="layer"
     inkscape:label="Page 1"
     transform="matrix(1.3333333,0,0,-1.3333333,-200.75732,337.75734)">
    <g
       id="g952"
       inkscape:export-filename="..\..\g952.svg"
       inkscape:export-xdpi="79.108208"
       inkscape:export-ydpi="79.108208">
      <g
         id="g954"
         clip-path="url(#clipPath958)">
        <g
           id="g960">
          <g
             id="g962">
            <path
               d="m 150.568,209.632 c 0,-24.089 19.598,-43.686 43.687,-43.686 v 0 c 24.089,0 43.687,19.597 43.687,43.686 v 0 c 0,24.089 -19.598,43.686 -43.687,43.686 v 0 c -24.089,0 -43.687,-19.597 -43.687,-43.686 m 6,0 c 0,20.78 16.906,37.687 37.687,37.687 v 0 c 20.78,0 37.687,-16.907 37.687,-37.687 v 0 c 0,-20.78 -16.907,-37.687 -37.687,-37.687 v 0 c -20.781,0 -37.687,16.907 -37.687,37.687"
               style="fill:url(#linearGradient968);stroke:none"
               id="path970" />
          </g>
        </g>
      </g>
    </g>
    <g
       id="g972">
      <g
         id="g974"
         clip-path="url(#clipPath978)">
        <g
           id="g980">
          <g
             id="g982">
            <path
               d="m 203.812,222.041 c 0.093,-1.679 1.387,-3.076 3.015,-3.085 v 0 c 1.641,-0.009 3.032,1.372 3.036,3.015 v 0 c 0.004,1.816 -1.152,2.997 -2.956,3.02 v 0 c -0.077,0.008 -0.154,0.012 -0.23,0.012 v 0 c -1.598,0 -2.933,-1.737 -2.865,-2.962"
               style="fill:url(#linearGradient988);stroke:none"
               id="path990" />
          </g>
        </g>
      </g>
    </g>
    <g
       id="g992">
      <g
         id="g994"
         clip-path="url(#clipPath998)">
        <g
           id="g1000">
          <g
             id="g1002">
            <path
               d="m 181.847,209.624 c -0.079,-6.903 5.402,-12.469 12.341,-12.528 v 0 c 6.83,-0.058 12.458,5.437 12.477,12.393 v 0 c 0.019,6.911 -5.474,12.33 -12.242,12.421 v 0 c -0.06,0.001 -0.119,0.001 -0.178,0.001 v 0 c -7.006,0.001 -12.395,-5.639 -12.398,-12.287 m 4.673,-0.187 c -0.03,4.351 3.321,7.773 7.656,7.816 v 0 c 4.334,0.043 7.775,-3.335 7.806,-7.663 v 0 c 0.031,-4.335 -3.34,-7.788 -7.654,-7.841 v 0 c -0.032,0 -0.065,0 -0.096,0 v 0 c -4.247,-0.001 -7.682,3.415 -7.712,7.688"
               style="fill:url(#linearGradient1008);stroke:none"
               id="path1010" />
          </g>
        </g>
      </g>
    </g>
    <g
       id="g1012">
      <g
         id="g1014"
         clip-path="url(#clipPath1018)">
        <g
           id="g1020">
          <g
             id="g1022">
            <path
               d="m 179.465,232.968 c -4.946,-1.918 -8.125,-5.388 -9.188,-10.664 v 0 c -0.082,-1.391 -0.229,-2.78 -0.236,-4.17 v 0 c -0.032,-5.795 -0.033,-11.59 -0.014,-17.386 v 0 c 0.004,-1.061 0.056,-2.14 0.246,-3.181 v 0 c 1.031,-5.663 4.29,-9.457 9.703,-11.415 v 0 c 1.658,-0.6 3.382,-0.724 5.116,-0.729 v 0 c 6.128,-0.016 12.256,-0.014 18.385,0.003 v 0 c 0.93,0.002 1.87,0.05 2.788,0.188 v 0 c 3.276,0.493 6.049,1.977 8.307,4.398 v 0 c 2.621,2.812 3.865,6.198 3.899,9.999 v 0 c 0.051,6.06 0.008,12.123 0,18.184 v 0 c 0,0.281 0.008,0.565 -0.075,0.833 v 0 c -0.017,0.31 -0.042,0.601 -0.068,0.894 v 0 c 0.007,0.06 0.02,0.12 0.016,0.179 v 0 c -0.053,0.992 -0.209,1.956 -0.459,2.895 v 0 c -0.28,1.305 -0.636,2.373 -1.014,3.221 v 0 c -0.005,0.018 0,0.042 -0.008,0.057 v 0 c -0.026,0.048 -0.058,0.089 -0.084,0.136 v 0 c -0.757,1.621 -1.558,2.429 -1.928,2.741 v 0 c -0.898,1.002 -1.929,1.876 -3.118,2.575 v 0 c -2.261,1.325 -4.734,2.125 -7.403,2.126 v 0 c -2.523,0 -5.046,-0.001 -7.568,-0.001 v 0 c -4.204,-0.001 -8.408,-0.002 -12.611,0.001 v 0 c -1.621,0.001 -3.191,-0.304 -4.686,-0.884 m 5.849,-43.022 c -1.197,0.002 -2.384,0.04 -3.555,0.385 v 0 c -3.852,1.139 -6.562,4.378 -6.937,8.385 v 0 c -0.062,0.662 -0.072,1.33 -0.073,1.994 v 0 c -0.01,5.921 -0.025,11.842 -0.011,17.761 v 0 c 0.001,0.183 0,0.365 0,0.548 v 0 c -0.003,1.278 0.019,2.56 0.66,3.741 v 0 c 0.385,0.616 0.743,1.252 1.158,1.849 v 0 c 1.976,2.838 4.79,4.097 8.163,4.25 v 0 c 0.996,0.045 1.995,0.011 2.993,0.011 v 0 c 5.19,0 10.379,-0.001 15.567,-0.001 v 0 c 2.686,0.001 5.088,-0.771 7.196,-2.485 v 0 c 0.194,-0.198 0.37,-0.409 0.542,-0.624 v 0 c 0.072,-0.097 0.146,-0.19 0.223,-0.282 v 0 c 1.964,-2.645 2.446,-6.279 2.54,-8.512 v 0 c 0,-0.007 -0.001,-0.014 -0.002,-0.022 v 0 c -0.02,-0.661 -0.006,-1.327 -0.007,-1.989 v 0 c -0.016,-4.856 -0.016,-9.712 -10e-4,-14.568 v 0 c 0.004,-1.824 -0.251,-3.576 -1.118,-5.21 v 0 c -1.622,-3.058 -4.189,-4.726 -7.583,-5.164 v 0 c -0.55,-0.07 -1.11,-0.069 -1.668,-0.068 v 0 c -0.109,0.001 -0.217,0.001 -0.325,0.001 v 0 c -3.123,-0.002 -6.247,-0.003 -9.37,-0.003 v 0 c -2.798,0 -5.594,10e-4 -8.392,0.003"
               style="fill:url(#linearGradient1028);stroke:none"
               id="path1030" />
          </g>
        </g>
      </g>
    </g>
  </g>
</svg>
