<?xml version="1.0" encoding="UTF-8" standalone="no"?>
<!-- Created with Inkscape (http://www.inkscape.org/) -->

<svg
   version="1.1"
   id="svg182"
   width="116.49866"
   height="116.49734"
   viewBox="0 0 116.49866 116.49734"
   xmlns="http://www.w3.org/2000/svg"
   xmlns:svg="http://www.w3.org/2000/svg">
  <defs
     id="defs186">
    <clipPath
       clipPathUnits="userSpaceOnUse"
       id="clipPath838">
      <path
         d="m 150.568,420.918 c 0,-24.088 19.598,-43.686 43.687,-43.686 v 0 c 24.089,0 43.687,19.598 43.687,43.686 v 0 c 0,24.09 -19.598,43.687 -43.687,43.687 v 0 c -24.089,0 -43.687,-19.597 -43.687,-43.687 m 6,0 c 0,20.781 16.906,37.688 37.687,37.688 v 0 c 20.78,0 37.687,-16.907 37.687,-37.688 v 0 c 0,-20.78 -16.907,-37.686 -37.687,-37.686 v 0 c -20.781,0 -37.687,16.906 -37.687,37.686"
         id="path836" />
    </clipPath>
    <linearGradient
       x1="0"
       y1="0"
       x2="1"
       y2="0"
       gradientUnits="userSpaceOnUse"
       gradientTransform="matrix(87.374023,0,0,-87.374023,150.56787,420.9187)"
       spreadMethod="pad"
       id="linearGradient848">
      <stop
         style="stop-opacity:1;stop-color:#ba007c"
         offset="0"
         id="stop844" />
      <stop
         style="stop-opacity:1;stop-color:#17207f"
         offset="1"
         id="stop846" />
    </linearGradient>
    <clipPath
       clipPathUnits="userSpaceOnUse"
       id="clipPath858">
      <path
         d="m 183.094,442.383 c -4.608,-2.372 -8.021,-5.892 -10.374,-10.437 v 0 c -1.705,-3.291 -2.533,-6.817 -2.542,-10.566 v 0 c -0.008,-3.587 0.524,-7.022 2.088,-10.262 v 0 c 0.405,-0.837 0.367,-1.629 0.17,-2.512 v 0 c -0.736,-3.306 -1.411,-6.626 -2.092,-9.945 v 0 c -0.079,-0.386 -0.086,-0.795 -0.066,-1.19 v 0 c 0.023,-0.457 0.311,-0.738 0.762,-0.77 v 0 c 0.802,-0.057 1.587,0.064 2.37,0.256 v 0 c 2.841,0.695 5.688,1.358 8.529,2.048 v 0 c 0.999,0.243 1.939,0.222 2.921,-0.18 v 0 c 4.001,-1.641 8.105,-2.355 12.469,-1.738 v 0 c 4.626,0.654 8.76,2.405 12.273,5.361 v 0 c 5.7,4.796 8.635,11.013 8.723,20.224 v 0 c 0.114,2.764 -1.213,6.811 -3.374,10.658 v 0 c -1.195,2.129 -2.844,3.845 -4.58,5.502 v 0 c -3.967,3.784 -8.8,5.706 -14.164,6.216 v 0 c -0.724,0.069 -1.442,0.103 -2.155,0.103 v 0 c -3.814,0 -7.467,-0.971 -10.958,-2.768 m -6.083,-37.886 c 0.126,1.054 0.347,2.096 0.533,3.143 v 0 c 0.022,0.13 0.074,0.255 0.113,0.382 v 0 c 0.533,1.713 0.642,3.381 -0.521,4.913 v 0 c -2.723,6.326 -2.381,12.463 1.308,18.301 v 0 c 2.764,4.372 6.828,7.068 11.821,8.188 v 0 c 4.275,0.96 8.422,0.352 12.399,-1.619 v 0 c 2.825,-1.4 5.083,-3.429 6.897,-5.904 v 0 c 1.697,-2.317 2.712,-4.973 3.204,-7.861 v 0 c 0.556,-3.251 0.232,-6.368 -0.878,-9.417 v 0 c -1.534,-4.212 -4.254,-7.448 -8.09,-9.808 v 0 c -1.914,-1.178 -3.996,-1.811 -6.125,-2.324 v 0 c -1.083,-0.262 -2.246,-0.205 -3.373,-0.291 v 0 c -3.014,-0.146 -5.823,0.634 -8.483,1.94 v 0 c -1.216,0.596 -2.362,0.729 -3.654,0.353 v 0 c -1.338,-0.389 -2.714,-0.658 -4.079,-0.946 v 0 c -0.139,-0.029 -0.264,-0.043 -0.377,-0.043 v 0 c -0.535,0 -0.775,0.328 -0.695,0.993"
         id="path856" />
    </clipPath>
    <linearGradient
       x1="0"
       y1="0"
       x2="1"
       y2="0"
       gradientUnits="userSpaceOnUse"
       gradientTransform="matrix(48.153351,0,0,-48.153351,170.17821,420.91861)"
       spreadMethod="pad"
       id="linearGradient868">
      <stop
         style="stop-opacity:1;stop-color:#ba007c"
         offset="0"
         id="stop864" />
      <stop
         style="stop-opacity:1;stop-color:#17207f"
         offset="1"
         id="stop866" />
    </linearGradient>
    <clipPath
       clipPathUnits="userSpaceOnUse"
       id="clipPath878">
      <path
         d="m 185.428,432.309 c -0.931,-0.554 -1.684,-1.331 -2.252,-2.231 v 0 c -0.904,-1.434 -1.386,-2.931 -1.017,-4.731 v 0 c 0.37,-1.803 0.985,-3.463 1.955,-4.982 v 0 c 2.524,-3.949 5.952,-6.962 9.987,-9.291 v 0 c 1.991,-1.15 4.2,-1.633 6.29,-1.866 v 0 c 2.987,0.017 4.969,1.425 6.336,3.761 v 0 c 0.751,1.283 0.342,2.4 -1.025,2.878 v 0 c -1.316,0.462 -2.667,0.832 -4.018,1.179 v 0 c -0.881,0.226 -1.724,0.106 -2.382,-0.63 v 0 c -0.176,-0.199 -0.37,-0.384 -0.577,-0.551 v 0 c -1.134,-0.905 -1.824,-0.971 -3.091,-0.201 v 0 c -2.352,1.429 -4.397,3.237 -6.183,5.317 v 0 c -1.344,1.566 -1.324,2.088 -0.226,3.862 v 0 c 0.14,0.227 0.266,0.461 0.396,0.694 v 0 c 0.237,0.427 0.319,0.906 0.195,1.357 v 0 c -0.496,1.808 -1.287,3.499 -2.287,5.075 v 0 c -0.295,0.464 -0.669,0.683 -1.101,0.683 v 0 c -0.307,0 -0.643,-0.111 -1,-0.323"
         id="path876" />
    </clipPath>
    <linearGradient
       x1="0"
       y1="0"
       x2="1"
       y2="0"
       gradientUnits="userSpaceOnUse"
       gradientTransform="matrix(25.064516,0,0,-25.064516,182.03455,420.91995)"
       spreadMethod="pad"
       id="linearGradient888">
      <stop
         style="stop-opacity:1;stop-color:#ba007c"
         offset="0"
         id="stop884" />
      <stop
         style="stop-opacity:1;stop-color:#17207f"
         offset="1"
         id="stop886" />
    </linearGradient>
  </defs>
  <g
     id="g190"
     transform="matrix(1.3333333,0,0,-1.3333333,-200.75732,619.47332)">
    <g
       id="g832">
      <g
         id="g834"
         clip-path="url(#clipPath838)">
        <g
           id="g840">
          <g
             id="g842">
            <path
               d="m 150.568,420.918 c 0,-24.088 19.598,-43.686 43.687,-43.686 v 0 c 24.089,0 43.687,19.598 43.687,43.686 v 0 c 0,24.09 -19.598,43.687 -43.687,43.687 v 0 c -24.089,0 -43.687,-19.597 -43.687,-43.687 m 6,0 c 0,20.781 16.906,37.688 37.687,37.688 v 0 c 20.78,0 37.687,-16.907 37.687,-37.688 v 0 c 0,-20.78 -16.907,-37.686 -37.687,-37.686 v 0 c -20.781,0 -37.687,16.906 -37.687,37.686"
               style="fill:url(#linearGradient848);stroke:none"
               id="path850" />
          </g>
        </g>
      </g>
    </g>
    <g
       id="g852">
      <g
         id="g854"
         clip-path="url(#clipPath858)">
        <g
           id="g860">
          <g
             id="g862">
            <path
               d="m 183.094,442.383 c -4.608,-2.372 -8.021,-5.892 -10.374,-10.437 v 0 c -1.705,-3.291 -2.533,-6.817 -2.542,-10.566 v 0 c -0.008,-3.587 0.524,-7.022 2.088,-10.262 v 0 c 0.405,-0.837 0.367,-1.629 0.17,-2.512 v 0 c -0.736,-3.306 -1.411,-6.626 -2.092,-9.945 v 0 c -0.079,-0.386 -0.086,-0.795 -0.066,-1.19 v 0 c 0.023,-0.457 0.311,-0.738 0.762,-0.77 v 0 c 0.802,-0.057 1.587,0.064 2.37,0.256 v 0 c 2.841,0.695 5.688,1.358 8.529,2.048 v 0 c 0.999,0.243 1.939,0.222 2.921,-0.18 v 0 c 4.001,-1.641 8.105,-2.355 12.469,-1.738 v 0 c 4.626,0.654 8.76,2.405 12.273,5.361 v 0 c 5.7,4.796 8.635,11.013 8.723,20.224 v 0 c 0.114,2.764 -1.213,6.811 -3.374,10.658 v 0 c -1.195,2.129 -2.844,3.845 -4.58,5.502 v 0 c -3.967,3.784 -8.8,5.706 -14.164,6.216 v 0 c -0.724,0.069 -1.442,0.103 -2.155,0.103 v 0 c -3.814,0 -7.467,-0.971 -10.958,-2.768 m -6.083,-37.886 c 0.126,1.054 0.347,2.096 0.533,3.143 v 0 c 0.022,0.13 0.074,0.255 0.113,0.382 v 0 c 0.533,1.713 0.642,3.381 -0.521,4.913 v 0 c -2.723,6.326 -2.381,12.463 1.308,18.301 v 0 c 2.764,4.372 6.828,7.068 11.821,8.188 v 0 c 4.275,0.96 8.422,0.352 12.399,-1.619 v 0 c 2.825,-1.4 5.083,-3.429 6.897,-5.904 v 0 c 1.697,-2.317 2.712,-4.973 3.204,-7.861 v 0 c 0.556,-3.251 0.232,-6.368 -0.878,-9.417 v 0 c -1.534,-4.212 -4.254,-7.448 -8.09,-9.808 v 0 c -1.914,-1.178 -3.996,-1.811 -6.125,-2.324 v 0 c -1.083,-0.262 -2.246,-0.205 -3.373,-0.291 v 0 c -3.014,-0.146 -5.823,0.634 -8.483,1.94 v 0 c -1.216,0.596 -2.362,0.729 -3.654,0.353 v 0 c -1.338,-0.389 -2.714,-0.658 -4.079,-0.946 v 0 c -0.139,-0.029 -0.264,-0.043 -0.377,-0.043 v 0 c -0.535,0 -0.775,0.328 -0.695,0.993"
               style="fill:url(#linearGradient868);stroke:none"
               id="path870" />
          </g>
        </g>
      </g>
    </g>
    <g
       id="g872">
      <g
         id="g874"
         clip-path="url(#clipPath878)">
        <g
           id="g880">
          <g
             id="g882">
            <path
               d="m 185.428,432.309 c -0.931,-0.554 -1.684,-1.331 -2.252,-2.231 v 0 c -0.904,-1.434 -1.386,-2.931 -1.017,-4.731 v 0 c 0.37,-1.803 0.985,-3.463 1.955,-4.982 v 0 c 2.524,-3.949 5.952,-6.962 9.987,-9.291 v 0 c 1.991,-1.15 4.2,-1.633 6.29,-1.866 v 0 c 2.987,0.017 4.969,1.425 6.336,3.761 v 0 c 0.751,1.283 0.342,2.4 -1.025,2.878 v 0 c -1.316,0.462 -2.667,0.832 -4.018,1.179 v 0 c -0.881,0.226 -1.724,0.106 -2.382,-0.63 v 0 c -0.176,-0.199 -0.37,-0.384 -0.577,-0.551 v 0 c -1.134,-0.905 -1.824,-0.971 -3.091,-0.201 v 0 c -2.352,1.429 -4.397,3.237 -6.183,5.317 v 0 c -1.344,1.566 -1.324,2.088 -0.226,3.862 v 0 c 0.14,0.227 0.266,0.461 0.396,0.694 v 0 c 0.237,0.427 0.319,0.906 0.195,1.357 v 0 c -0.496,1.808 -1.287,3.499 -2.287,5.075 v 0 c -0.295,0.464 -0.669,0.683 -1.101,0.683 v 0 c -0.307,0 -0.643,-0.111 -1,-0.323"
               style="fill:url(#linearGradient888);stroke:none"
               id="path890" />
          </g>
        </g>
      </g>
    </g>
  </g>
</svg>
